<svg xmlns="http://www.w3.org/2000/svg" xmlns:xlink="http://www.w3.org/1999/xlink" width="150" zoomAndPan="magnify" viewBox="0 0 112.5 52.499999" height="70" preserveAspectRatio="xMidYMid meet" version="1.0"><defs><g/></defs><g fill="#ffffff" fill-opacity="1"><g transform="translate(5.618811, 32.897158)"><g><path d="M 7.078125 -13.203125 C 7.816406 -13.203125 8.539062 -13.117188 9.25 -12.953125 C 9.96875 -12.785156 10.503906 -12.617188 10.859375 -12.453125 L 11.375 -12.203125 L 9.9375 -9.3125 C 8.9375 -9.84375 7.984375 -10.109375 7.078125 -10.109375 C 6.578125 -10.109375 6.222656 -10.050781 6.015625 -9.9375 C 5.804688 -9.832031 5.703125 -9.628906 5.703125 -9.328125 C 5.703125 -9.265625 5.707031 -9.195312 5.71875 -9.125 C 5.738281 -9.0625 5.773438 -9 5.828125 -8.9375 C 5.878906 -8.882812 5.925781 -8.835938 5.96875 -8.796875 C 6.007812 -8.753906 6.078125 -8.707031 6.171875 -8.65625 C 6.273438 -8.601562 6.351562 -8.5625 6.40625 -8.53125 C 6.46875 -8.507812 6.566406 -8.472656 6.703125 -8.421875 C 6.835938 -8.378906 6.9375 -8.34375 7 -8.3125 C 7.070312 -8.289062 7.1875 -8.253906 7.34375 -8.203125 C 7.5 -8.148438 7.617188 -8.117188 7.703125 -8.109375 C 8.222656 -7.953125 8.671875 -7.78125 9.046875 -7.59375 C 9.429688 -7.414062 9.835938 -7.164062 10.265625 -6.84375 C 10.691406 -6.53125 11.019531 -6.128906 11.25 -5.640625 C 11.488281 -5.160156 11.609375 -4.613281 11.609375 -4 C 11.609375 -1.082031 9.582031 0.375 5.53125 0.375 C 4.613281 0.375 3.738281 0.234375 2.90625 -0.046875 C 2.082031 -0.328125 1.488281 -0.613281 1.125 -0.90625 L 0.578125 -1.34375 L 2.375 -4.375 C 2.507812 -4.257812 2.6875 -4.125 2.90625 -3.96875 C 3.125 -3.8125 3.515625 -3.59375 4.078125 -3.3125 C 4.640625 -3.039062 5.128906 -2.90625 5.546875 -2.90625 C 6.460938 -2.90625 6.921875 -3.210938 6.921875 -3.828125 C 6.921875 -4.109375 6.804688 -4.328125 6.578125 -4.484375 C 6.347656 -4.648438 5.953125 -4.832031 5.390625 -5.03125 C 4.828125 -5.226562 4.390625 -5.410156 4.078125 -5.578125 C 3.273438 -5.992188 2.640625 -6.460938 2.171875 -6.984375 C 1.703125 -7.515625 1.46875 -8.210938 1.46875 -9.078125 C 1.46875 -10.378906 1.972656 -11.390625 2.984375 -12.109375 C 3.992188 -12.835938 5.359375 -13.203125 7.078125 -13.203125 Z M 7.078125 -13.203125 "/></g></g></g><g fill="#ffffff" fill-opacity="1"><g transform="translate(15.574345, 32.897158)"><g><path d="M 2.375 -1.578125 C 1.175781 -2.890625 0.578125 -4.492188 0.578125 -6.390625 C 0.578125 -8.296875 1.175781 -9.90625 2.375 -11.21875 C 3.570312 -12.539062 5.097656 -13.203125 6.953125 -13.203125 C 8.648438 -13.203125 10.050781 -12.671875 11.15625 -11.609375 L 11.15625 -12.828125 L 15.578125 -12.828125 L 15.578125 0 L 11.203125 0 L 11.203125 -1.453125 L 11.15625 -1.453125 C 10.050781 -0.234375 8.648438 0.375 6.953125 0.375 C 5.097656 0.375 3.570312 -0.273438 2.375 -1.578125 Z M 6.140625 -8.578125 C 5.566406 -8.015625 5.28125 -7.289062 5.28125 -6.40625 C 5.28125 -5.519531 5.550781 -4.796875 6.09375 -4.234375 C 6.644531 -3.679688 7.375 -3.40625 8.28125 -3.40625 C 9.144531 -3.40625 9.851562 -3.6875 10.40625 -4.25 C 10.96875 -4.820312 11.25 -5.539062 11.25 -6.40625 C 11.25 -7.289062 10.960938 -8.015625 10.390625 -8.578125 C 9.816406 -9.148438 9.113281 -9.4375 8.28125 -9.4375 C 7.425781 -9.4375 6.710938 -9.148438 6.140625 -8.578125 Z M 6.140625 -8.578125 "/></g></g></g><g fill="#ffffff" fill-opacity="1"><g transform="translate(30.307863, 32.897158)"><g><path d="M 2.25 -12.828125 L 2.25 -15.5625 C 2.269531 -17.476562 2.71875 -19.007812 3.59375 -20.15625 C 4.476562 -21.3125 5.707031 -21.890625 7.28125 -21.890625 C 7.945312 -21.890625 8.582031 -21.789062 9.1875 -21.59375 C 9.800781 -21.40625 10.238281 -21.210938 10.5 -21.015625 L 10.9375 -20.734375 L 9.375 -17.609375 C 8.976562 -17.847656 8.539062 -17.96875 8.0625 -17.96875 C 7.507812 -17.96875 7.140625 -17.773438 6.953125 -17.390625 C 6.765625 -17.015625 6.671875 -16.363281 6.671875 -15.4375 L 6.671875 -12.828125 L 9.625 -12.828125 L 9.625 -9.453125 L 6.671875 -9.453125 L 6.671875 0 L 2.25 0 L 2.25 -9.453125 L 0.40625 -9.453125 L 0.40625 -12.828125 Z M 2.25 -12.828125 "/></g></g></g><g fill="#ffffff" fill-opacity="1"><g transform="translate(37.336567, 32.897158)"><g><path d="M 14.484375 -5.796875 L 5.171875 -5.796875 C 5.171875 -4.898438 5.460938 -4.234375 6.046875 -3.796875 C 6.628906 -3.367188 7.265625 -3.15625 7.953125 -3.15625 C 8.671875 -3.15625 9.238281 -3.25 9.65625 -3.4375 C 10.070312 -3.632812 10.546875 -4.015625 11.078125 -4.578125 L 14.28125 -2.984375 C 12.945312 -0.742188 10.726562 0.375 7.625 0.375 C 5.695312 0.375 4.039062 -0.285156 2.65625 -1.609375 C 1.269531 -2.941406 0.578125 -4.539062 0.578125 -6.40625 C 0.578125 -8.269531 1.269531 -9.867188 2.65625 -11.203125 C 4.039062 -12.535156 5.695312 -13.203125 7.625 -13.203125 C 9.664062 -13.203125 11.320312 -12.613281 12.59375 -11.4375 C 13.875 -10.269531 14.515625 -8.59375 14.515625 -6.40625 C 14.515625 -6.101562 14.503906 -5.898438 14.484375 -5.796875 Z M 5.296875 -8.25 L 10.1875 -8.25 C 10.082031 -8.914062 9.816406 -9.425781 9.390625 -9.78125 C 8.960938 -10.144531 8.414062 -10.328125 7.75 -10.328125 C 7.019531 -10.328125 6.4375 -10.132812 6 -9.75 C 5.570312 -9.375 5.335938 -8.875 5.296875 -8.25 Z M 5.296875 -8.25 "/></g></g></g><g fill="#ffffff" fill-opacity="1"><g transform="translate(50.068833, 32.897158)"><g><path d="M 5.671875 -12.828125 L 5.671875 -6.734375 C 5.671875 -5.460938 5.863281 -4.5625 6.25 -4.03125 C 6.632812 -3.5 7.285156 -3.234375 8.203125 -3.234375 C 9.117188 -3.234375 9.769531 -3.5 10.15625 -4.03125 C 10.539062 -4.5625 10.734375 -5.460938 10.734375 -6.734375 L 10.734375 -12.828125 L 15.15625 -12.828125 L 15.15625 -5.65625 C 15.15625 -3.519531 14.597656 -1.976562 13.484375 -1.03125 C 12.378906 -0.09375 10.617188 0.375 8.203125 0.375 C 5.785156 0.375 4.019531 -0.09375 2.90625 -1.03125 C 1.800781 -1.976562 1.25 -3.519531 1.25 -5.65625 L 1.25 -12.828125 Z M 5.671875 -12.828125 "/></g></g></g><g fill="#ffffff" fill-opacity="1"><g transform="translate(64.126933, 32.897158)"><g><path d="M 1.5 0 L 1.5 -12.828125 L 5.921875 -12.828125 L 5.921875 -11.484375 L 5.984375 -11.484375 C 7.128906 -12.628906 8.351562 -13.203125 9.65625 -13.203125 C 10.289062 -13.203125 10.921875 -13.117188 11.546875 -12.953125 C 12.171875 -12.785156 12.769531 -12.523438 13.34375 -12.171875 C 13.914062 -11.828125 14.378906 -11.332031 14.734375 -10.6875 C 15.097656 -10.050781 15.28125 -9.304688 15.28125 -8.453125 L 15.28125 0 L 10.859375 0 L 10.859375 -7.25 C 10.859375 -7.914062 10.644531 -8.5 10.21875 -9 C 9.789062 -9.5 9.238281 -9.75 8.5625 -9.75 C 7.894531 -9.75 7.285156 -9.488281 6.734375 -8.96875 C 6.191406 -8.457031 5.921875 -7.882812 5.921875 -7.25 L 5.921875 0 Z M 1.5 0 "/></g></g></g><g fill="#ffffff" fill-opacity="1"><g transform="translate(78.31011, 32.897158)"><g><path d="M 1.921875 -19.984375 C 2.441406 -20.503906 3.0625 -20.765625 3.78125 -20.765625 C 4.5 -20.765625 5.113281 -20.503906 5.625 -19.984375 C 6.144531 -19.472656 6.40625 -18.859375 6.40625 -18.140625 C 6.40625 -17.421875 6.144531 -16.800781 5.625 -16.28125 C 5.113281 -15.769531 4.5 -15.515625 3.78125 -15.515625 C 3.0625 -15.515625 2.441406 -15.769531 1.921875 -16.28125 C 1.410156 -16.800781 1.15625 -17.421875 1.15625 -18.140625 C 1.15625 -18.859375 1.410156 -19.472656 1.921875 -19.984375 Z M 1.5 -12.828125 L 1.5 0 L 5.921875 0 L 5.921875 -12.828125 Z M 1.5 -12.828125 "/></g></g></g><g fill="#ffffff" fill-opacity="1"><g transform="translate(83.512674, 32.897158)"><g><path d="M 2.25 -12.828125 L 2.25 -17.609375 L 6.671875 -17.609375 L 6.671875 -12.828125 L 9.375 -12.828125 L 9.375 -9.453125 L 6.671875 -9.453125 L 6.671875 -5.375 C 6.671875 -4.195312 7.007812 -3.609375 7.6875 -3.609375 C 7.851562 -3.609375 8.023438 -3.640625 8.203125 -3.703125 C 8.390625 -3.765625 8.53125 -3.832031 8.625 -3.90625 L 8.78125 -4 L 9.875 -0.421875 C 8.925781 0.109375 7.84375 0.375 6.625 0.375 C 5.789062 0.375 5.070312 0.226562 4.46875 -0.0625 C 3.875 -0.351562 3.421875 -0.742188 3.109375 -1.234375 C 2.804688 -1.722656 2.585938 -2.238281 2.453125 -2.78125 C 2.316406 -3.332031 2.25 -3.914062 2.25 -4.53125 L 2.25 -9.453125 L 0.40625 -9.453125 L 0.40625 -12.828125 Z M 2.25 -12.828125 "/></g></g></g><g fill="#ffffff" fill-opacity="1"><g transform="translate(91.041686, 32.897158)"><g><path d="M 11.234375 -12.828125 L 16.328125 -12.828125 L 6.25 6.5 L 1.15625 6.5 L 5.578125 -2 L -0.5 -12.828125 L 4.609375 -12.828125 L 8.1875 -6.25 Z M 11.234375 -12.828125 "/></g></g></g></svg>